<svg width="20" height="20" viewBox="0 0 20 20" fill="none" xmlns="http://www.w3.org/2000/svg">
<path d="M8.89999 0.100008C4.29999 0.600008 0.599994 4.30001 0.0999937 8.80001C-0.400006 13.5 2.29999 17.7 6.39999 19.3C6.69999 19.4 6.99999 19.2 6.99999 18.8V17.2C6.99999 17.2 6.59999 17.3 6.09999 17.3C4.69999 17.3 4.09999 16.1 3.99999 15.4C3.89999 15 3.69999 14.7 3.39999 14.4C3.09999 14.3 2.99999 14.3 2.99999 14.2C2.99999 14 3.29999 14 3.39999 14C3.99999 14 4.49999 14.7 4.69999 15C5.19999 15.8 5.79999 16 6.09999 16C6.49999 16 6.79999 15.9 6.99999 15.8C7.09999 15.1 7.39999 14.4 7.99999 14C5.69999 13.5 3.99999 12.2 3.99999 10C3.99999 8.90001 4.49999 7.80001 5.19999 7.00001C5.09999 6.80001 4.99999 6.30001 4.99999 5.60001C4.99999 5.20001 4.99999 4.60001 5.29999 4.00001C5.29999 4.00001 6.69999 4.00001 8.09999 5.30001C8.59999 5.10001 9.29999 5.00001 9.99999 5.00001C10.7 5.00001 11.4 5.10001 12 5.30001C13.3 4.00001 14.8 4.00001 14.8 4.00001C15 4.60001 15 5.20001 15 5.60001C15 6.40001 14.9 6.80001 14.8 7.00001C15.5 7.80001 16 8.80001 16 10C16 12.2 14.3 13.5 12 14C12.6 14.5 13 15.4 13 16.3V18.9C13 19.2 13.3 19.5 13.7 19.4C17.4 17.9 20 14.3 20 10.1C20 4.10001 14.9 -0.599993 8.89999 0.100008Z" fill="#310A90"/>
</svg>
